HIERARCHY
ROOT Hips
{
	OFFSET 0.000000 89.005402 0.000000
	CHANNELS 6 Xposition Yposition Zposition Xrotation Yrotation Zrotation
	JOINT Spine
	{
		OFFSET 0.116900 10.681000 0.373400
		CHANNELS 3 Xrotation Yrotation Zrotation
		JOINT Spine1
		{
			OFFSET 0.000000 13.840401 0.053500
			CHANNELS 3 Xrotation Yrotation Zrotation
			JOINT Spine2
			{
				OFFSET 0.000000 14.712700 -0.366200
				CHANNELS 3 Xrotation Yrotation Zrotation
				JOINT Neck
				{
					OFFSET 0.000000 35.415497 -3.314200
					CHANNELS 3 Xrotation Yrotation Zrotation
					JOINT Head
					{
						OFFSET 0.000000 16.899200 1.218300
						CHANNELS 3 Xrotation Yrotation Zrotation
						JOINT HeadTop_End
						{
							OFFSET 0.000000 22.206207 2.192500
							CHANNELS 3 Xrotation Yrotation Zrotation
							End Site
							{
								OFFSET 0.000000 22.314178 0.000000
							}
						}
					}
				}
				JOINT LeftShoulder
				{
					OFFSET 12.896400 26.716293 -4.548400
					CHANNELS 3 Xrotation Yrotation Zrotation
					JOINT LeftArm
					{
						OFFSET 19.027000 -4.857010 -1.718400
						CHANNELS 3 Xrotation Yrotation Zrotation
						JOINT LeftForeArm
						{
							OFFSET 24.179897 0.000000 0.000000
							CHANNELS 3 Xrotation Yrotation Zrotation
							JOINT LeftHand
							{
								OFFSET 27.156403 0.000000 0.000000
								CHANNELS 3 Xrotation Yrotation Zrotation
								JOINT LeftHandIndex1
								{
									OFFSET 16.441200 0.000000 0.000000
									CHANNELS 3 Xrotation Yrotation Zrotation
									JOINT LeftHandIndex2
									{
										OFFSET 4.821899 0.000000 0.000000
										CHANNELS 3 Xrotation Yrotation Zrotation
										JOINT LeftHandIndex3
										{
											OFFSET 6.386497 0.000000 0.000000
											CHANNELS 3 Xrotation Yrotation Zrotation
											JOINT LeftHandIndex4
											{
												OFFSET 5.188988 0.000000 0.000000
												CHANNELS 3 Xrotation Yrotation Zrotation
												End Site
												{
													OFFSET -0.178703 5.185913 0.000177
												}
											}
										}
									}
								}
								JOINT LeftHandThumb1
								{
									OFFSET 6.534897 -5.032593 5.900300
									CHANNELS 3 Xrotation Yrotation Zrotation
									JOINT LeftHandThumb2
									{
										OFFSET 3.818176 -2.204422 2.204423
										CHANNELS 3 Xrotation Yrotation Zrotation
										JOINT LeftHandThumb3
										{
											OFFSET 3.252098 -1.877594 1.877601
											CHANNELS 3 Xrotation Yrotation Zrotation
											JOINT LeftHandThumb4
											{
												OFFSET 5.251778 -3.032120 3.032117
												CHANNELS 3 Xrotation Yrotation Zrotation
												End Site
												{
													OFFSET 0.000023 6.780014 0.000000
												}
											}
										}
									}
								}
							}
						}
					}
				}
				JOINT RightShoulder
				{
					OFFSET -12.896300 26.716293 -4.548400
					CHANNELS 3 Xrotation Yrotation Zrotation
					JOINT RightArm
					{
						OFFSET -19.027000 -4.857010 -1.718400
						CHANNELS 3 Xrotation Yrotation Zrotation
						JOINT RightForeArm
						{
							OFFSET -24.179897 0.000000 0.000000
							CHANNELS 3 Xrotation Yrotation Zrotation
							JOINT RightHand
							{
								OFFSET -27.156403 0.000000 0.000000
								CHANNELS 3 Xrotation Yrotation Zrotation
								JOINT RightHandThumb1
								{
									OFFSET -6.591202 -4.852203 5.988100
									CHANNELS 3 Xrotation Yrotation Zrotation
									JOINT RightHandThumb2
									{
										OFFSET -3.818176 -2.204422 2.204423
										CHANNELS 3 Xrotation Yrotation Zrotation
										JOINT RightHandThumb3
										{
											OFFSET -3.252098 -1.877594 1.877601
											CHANNELS 3 Xrotation Yrotation Zrotation
											JOINT RightHandThumb4
											{
												OFFSET -5.251778 -3.032120 3.032117
												CHANNELS 3 Xrotation Yrotation Zrotation
												End Site
												{
													OFFSET -0.000023 6.780014 0.000000
												}
											}
										}
									}
								}
								JOINT RightHandIndex1
								{
									OFFSET -16.029404 0.000000 0.000000
									CHANNELS 3 Xrotation Yrotation Zrotation
									JOINT RightHandIndex2
									{
										OFFSET -5.213303 0.000000 0.000000
										CHANNELS 3 Xrotation Yrotation Zrotation
										JOINT RightHandIndex3
										{
											OFFSET -6.386528 0.000000 0.000000
											CHANNELS 3 Xrotation Yrotation Zrotation
											JOINT RightHandIndex4
											{
												OFFSET -5.189026 0.000000 0.000000
												CHANNELS 3 Xrotation Yrotation Zrotation
												End Site
												{
													OFFSET 0.236702 5.183624 0.001972
												}
											}
										}
									}
								}
							}
						}
					}
				}
			}
		}
	}
	JOINT LeftUpLeg
	{
		OFFSET 14.073000 -7.904099 -1.463000
		CHANNELS 3 Xrotation Yrotation Zrotation
		JOINT LeftLeg
		{
			OFFSET -0.109806 -34.073280 4.093200
			CHANNELS 3 Xrotation Yrotation Zrotation
			JOINT LeftFoot
			{
				OFFSET 0.109806 -29.899420 -6.319000
				CHANNELS 3 Xrotation Yrotation Zrotation
				JOINT LeftToeBase
				{
					OFFSET 1.551100 -14.988700 20.535801
					CHANNELS 3 Xrotation Yrotation Zrotation
					JOINT LeftToe_End
					{
						OFFSET 0.221200 0.570800 13.248301
						CHANNELS 3 Xrotation Yrotation Zrotation
						End Site
						{
							OFFSET 0.000000 13.262435 0.000000
						}
					}
				}
			}
		}
	}
	JOINT RightUpLeg
	{
		OFFSET -13.839300 -7.904099 -1.463000
		CHANNELS 3 Xrotation Yrotation Zrotation
		JOINT RightLeg
		{
			OFFSET 0.109694 -34.073219 4.093300
			CHANNELS 3 Xrotation Yrotation Zrotation
			JOINT RightFoot
			{
				OFFSET -0.109694 -29.899384 -6.319200
				CHANNELS 3 Xrotation Yrotation Zrotation
				JOINT RightToeBase
				{
					OFFSET -1.551100 -14.988700 20.535801
					CHANNELS 3 Xrotation Yrotation Zrotation
					JOINT RightToe_End
					{
						OFFSET -0.221200 0.570900 13.248299
						CHANNELS 3 Xrotation Yrotation Zrotation
						End Site
						{
							OFFSET 0.000000 13.262440 0.000000
						}
					}
				}
			}
		}
	}
}
MOTION
Frames: 8
Frame Time: 0.033333
-20.109005 77.056252 -4.087584 11.135509 -29.998949 -1.105478 3.677389 2.075512 -1.555676 2.067585 1.717606 -1.488756 2.069514 1.573963 -1.588552 -7.064553 4.225460 1.916527 -28.985557 23.323117 1.604923 -0.000001 -0.000000 0.000000 0.596757 -1.282556 -8.721321 24.501787 -47.937519 -32.179849 -0.000031 -73.345768 -0.000043 -52.285487 26.717928 9.309637 1.048866 3.658012 -31.989102 1.048870 3.658016 -31.989102 0.267041 1.902609 -15.977802 0.000000 -0.000003 0.000000 -2.565718 -4.554296 24.134475 1.988120 3.569028 -3.175238 -1.447672 -0.616427 0.425951 0.000001 -0.000002 -0.000000 0.659808 -0.160181 9.385749 3.640180 45.976370 59.626985 -0.000013 59.989053 0.000011 -20.179784 12.542652 -2.314599 11.413571 6.216299 -6.058464 -12.782105 -3.599769 -8.270323 -11.234817 5.151970 -3.819936 0.000000 -0.000002 -0.000000 3.958615 -6.275008 64.460614 3.958628 -6.275004 64.460627 1.067713 -3.707544 32.121785 0.000003 0.000001 0.000001 -44.767399 4.968544 22.223793 56.876502 3.263334 -4.876707 -21.533011 1.493444 -5.635794 -0.000039 0.000007 0.000005 -0.000000 0.000000 -0.000000 -18.286226 -13.432106 -27.846263 26.985746 -10.333237 -6.204614 7.495071 -7.480830 28.197480 -7.913278 -0.002362 0.434241 0.000000 0.000001 -0.000000 
-19.519516 78.097557 -3.264753 10.862697 -30.800390 -1.066633 3.430432 2.348462 -1.528362 1.861418 1.960566 -1.412848 1.867179 1.828356 -1.526396 -7.015834 4.275867 1.803265 -28.356765 23.521601 1.370183 0.000001 -0.000000 0.000001 0.603652 -1.031288 -9.027864 24.848452 -48.303975 -32.789788 -0.000022 -73.153949 -0.000025 -52.586729 26.627660 9.404462 1.048875 3.658011 -31.989106 1.048865 3.658012 -31.989109 0.267039 1.902612 -15.977803 0.000002 0.000001 0.000000 -2.565711 -4.554296 24.134468 1.988125 3.569025 -3.175234 -1.447668 -0.616424 0.425952 -0.000000 -0.000002 -0.000002 0.658430 -0.101178 9.305307 4.611051 45.577128 59.422427 0.000021 60.423426 -0.000026 -20.217341 11.446953 -4.052579 11.413572 6.216297 -6.058462 -12.782107 -3.599765 -8.270323 -11.234818 5.151969 -3.819936 -0.000001 -0.000000 0.000001 3.958615 -6.275010 64.460607 3.958625 -6.275004 64.460621 1.067715 -3.707544 32.121782 -0.000000 -0.000002 0.000000 -42.133716 5.088382 20.584821 54.423586 5.300301 -4.369040 -21.173404 1.733126 -6.091046 -0.000039 0.000007 0.000005 0.000000 0.000000 -0.000000 -17.919722 -13.255117 -26.411332 25.982878 -9.963756 -5.448069 6.894983 -7.307202 27.901393 -7.425228 -0.012233 0.998933 0.000000 -0.000001 -0.000001 
-18.917486 79.075867 -2.492867 10.443178 -31.754680 -1.034309 3.317622 2.552996 -1.447408 1.771158 2.138324 -1.301876 1.779697 2.018948 -1.426265 -6.872760 4.381177 1.716846 -27.953814 24.023730 1.162423 0.000001 0.000001 -0.000001 0.608420 -0.900218 -9.194270 24.458228 -48.464072 -34.127214 -0.000054 -72.832226 -0.000057 -52.829761 26.381283 9.424347 1.048872 3.658012 -31.989102 1.048868 3.658015 -31.989102 0.267040 1.902613 -15.977800 -0.000000 0.000000 -0.000002 -2.565712 -4.554297 24.134475 1.988120 3.569023 -3.175232 -1.447665 -0.616423 0.425949 0.000002 0.000002 0.000000 0.652235 -0.013637 9.083282 5.040712 45.416189 59.320726 -0.000027 60.610081 0.000032 -20.042410 10.353804 -5.315604 11.413569 6.216296 -6.058462 -12.782106 -3.599767 -8.270324 -11.234818 5.151969 -3.819934 -0.000000 0.000002 0.000000 3.958615 -6.275012 64.460614 3.958628 -6.275005 64.460621 1.067708 -3.707544 32.121775 -0.000001 -0.000000 0.000000 -39.464410 5.294241 18.805365 51.834886 5.724868 -3.862658 -20.778194 3.523914 -5.715931 -0.000039 0.000007 0.000005 -0.000000 -0.000000 0.000000 -17.702985 -12.894772 -24.772755 25.239277 -9.603195 -4.655402 5.473555 -6.661941 27.352141 -6.723283 -0.024130 1.409724 -0.000000 -0.000000 -0.000001 
-18.317822 80.013336 -1.754126 9.889830 -32.750689 -0.997626 3.326604 2.624170 -1.353460 1.784291 2.208846 -1.178091 1.794127 2.102277 -1.307269 -6.630179 4.533059 1.653499 -27.762219 24.783254 0.995792 -0.000000 -0.000000 -0.000000 0.612130 -0.923278 -9.263826 23.546563 -48.278772 -35.978107 0.000036 -72.526801 0.000038 -53.101258 26.022884 9.481287 1.048873 3.658011 -31.989102 1.048867 3.658011 -31.989102 0.267039 1.902609 -15.977802 -0.000002 -0.000001 -0.000000 -2.565714 -4.554298 24.134470 1.988123 3.569029 -3.175237 -1.447667 -0.616426 0.425952 -0.000001 -0.000003 -0.000002 0.644933 0.089703 8.817553 5.075860 45.529860 59.211975 -0.000005 60.556956 0.000008 -19.641450 9.362758 -6.106773 11.413571 6.216303 -6.058464 -12.782108 -3.599769 -8.270324 -11.234817 5.151968 -3.819936 0.000001 -0.000001 -0.000001 3.958616 -6.275004 64.460614 3.958631 -6.275004 64.460621 1.067711 -3.707541 32.121779 -0.000001 -0.000001 -0.000000 -36.711065 5.566379 16.992898 49.137341 5.807585 -3.392479 -20.312795 5.549423 -5.112060 -0.000039 0.000007 0.000005 -0.000000 0.000000 -0.000000 -17.561598 -12.395661 -22.913290 24.511703 -9.302596 -3.946007 3.627925 -5.594520 26.408168 -5.792912 -0.034723 1.701945 -0.000000 -0.000001 0.000000 
-17.748241 80.901176 -1.046499 9.241066 -33.655443 -0.948599 3.419258 2.525669 -1.282314 1.866629 2.149055 -1.056602 1.876509 2.054231 -1.182762 -6.315934 4.713271 1.616090 -27.665077 25.723008 0.836537 -0.000000 -0.000000 -0.000000 0.616024 -1.074918 -9.292666 22.473687 -47.764824 -37.939140 0.000020 -72.357105 0.000013 -53.531509 25.610240 9.655200 1.048873 3.658014 -31.989102 1.048865 3.658018 -31.989102 0.267041 1.902616 -15.977798 -0.000001 -0.000001 -0.000001 -2.565712 -4.554293 24.134475 1.988117 3.569027 -3.175240 -1.447664 -0.616423 0.425952 0.000002 -0.000001 -0.000000 0.639526 0.191849 8.596625 4.919089 45.867111 58.997931 -0.000027 60.345923 0.000021 -19.038729 8.569131 -6.473711 11.413574 6.216296 -6.058463 -12.782106 -3.599768 -8.270324 -11.234817 5.151972 -3.819936 0.000000 -0.000000 -0.000000 3.958617 -6.275011 64.460614 3.958628 -6.275002 64.460621 1.067717 -3.707542 32.121785 -0.000000 0.000000 -0.000001 -33.926318 5.859656 15.203497 46.372651 6.114875 -2.969875 -19.746347 7.167385 -4.560540 -0.000039 0.000007 0.000005 0.000000 -0.000000 -0.000000 -17.483855 -11.789414 -20.889862 23.733266 -9.089164 -3.369886 1.689745 -4.180407 25.047595 -4.662872 -0.044135 1.929255 0.000000 0.000000 0.000000 
-17.235718 81.716293 -0.374364 8.542513 -34.356026 -0.900105 3.544837 2.257546 -1.236433 1.974997 1.961417 -0.938264 1.984047 1.877173 -1.053693 -5.979754 4.899623 1.604683 -27.501603 26.736583 0.651117 0.000000 0.000000 0.000000 0.620569 -1.283853 -9.326790 21.549394 -47.092583 -39.657803 0.000013 -72.338615 0.000009 -54.199142 25.193317 9.940055 1.048871 3.658013 -31.989102 1.048868 3.658017 -31.989106 0.267041 1.902611 -15.977803 -0.000001 -0.000005 0.000001 -2.565714 -4.554295 24.134472 1.988125 3.569025 -3.175235 -1.447665 -0.616424 0.425949 -0.000001 -0.000002 -0.000000 0.637348 0.275205 8.473292 4.772360 46.309898 58.620071 0.000018 60.077504 -0.000011 -18.288296 8.040976 -6.487201 11.413571 6.216296 -6.058463 -12.782109 -3.599767 -8.270324 -11.234818 5.151974 -3.819936 -0.000000 0.000001 0.000001 3.958615 -6.275008 64.460614 3.958631 -6.275005 64.460621 1.067713 -3.707543 32.121779 -0.000001 -0.000001 0.000001 -31.220924 6.134901 13.470035 43.611362 6.518794 -2.590829 -19.099422 8.401645 -4.037081 -0.000039 0.000007 0.000005 -0.000000 0.000000 -0.000000 -17.456469 -11.133930 -18.777486 22.939120 -8.952378 -2.900565 -0.116146 -2.535647 23.353192 -3.468962 -0.050519 2.074082 0.000000 0.000000 0.000000 
-16.806580 82.435593 0.256211 7.830291 -34.785115 -0.865539 3.656943 1.847417 -1.217486 2.071355 1.669813 -0.818413 2.079046 1.595283 -0.916858 -5.659339 5.073170 1.621773 -27.151450 27.728683 0.421321 -0.000001 0.000000 -0.000000 0.625209 -1.480038 -9.383544 20.947137 -46.464872 -40.936039 0.000016 -72.424136 0.000009 -55.107510 24.811246 10.282209 1.048870 3.658014 -31.989112 1.048863 3.658012 -31.989106 0.267042 1.902610 -15.977802 -0.000000 0.000002 -0.000002 -2.565717 -4.554295 24.134470 1.988120 3.569028 -3.175236 -1.447674 -0.616425 0.425952 -0.000003 -0.000000 -0.000001 0.638732 0.330453 8.469181 4.776708 46.726219 58.078909 0.000011 59.829158 -0.000017 -17.472143 7.794959 -6.219531 11.413571 6.216302 -6.058463 -12.782108 -3.599768 -8.270324 -11.234818 5.151972 -3.819934 0.000001 0.000002 0.000002 3.958614 -6.275005 64.460614 3.958625 -6.275005 64.460627 1.067718 -3.707546 32.121785 -0.000001 -0.000002 -0.000000 -28.686368 6.370035 11.857857 40.966109 7.017642 -2.246819 -18.417274 9.183213 -3.589456 -0.000039 0.000007 0.000005 0.000000 -0.000000 0.000000 -17.496665 -10.492543 -16.581971 22.140582 -7.728611 -2.493685 -1.524580 -1.939781 21.347297 -2.545409 -0.060344 1.917593 0.000000 -0.000002 0.000000 
-16.477940 83.044579 0.842294 7.123309 -34.928098 -0.861631 3.721830 1.338383 -1.225195 2.130201 1.307486 -0.691096 2.136156 1.242372 -0.768224 -5.362185 5.220613 1.673869 -26.547767 28.636914 0.132131 0.000000 0.000000 -0.000000 0.629110 -1.634283 -9.448552 20.707595 -46.008707 -41.744057 -0.000039 -72.560638 -0.000038 -56.194937 24.494378 10.632164 1.048870 3.658013 -31.989102 1.048865 3.658018 -31.989102 0.267045 1.902615 -15.977802 -0.000000 0.000000 0.000001 -2.565714 -4.554294 24.134477 1.988124 3.569030 -3.175237 -1.447668 -0.616423 0.425949 -0.000003 -0.000001 -0.000003 0.643709 0.361243 8.586616 5.001213 47.004016 57.412808 -0.000008 59.661552 0.000002 -16.686794 7.774245 -5.722994 11.413571 6.216298 -6.058463 -12.782107 -3.599768 -8.270322 -11.234817 5.151972 -3.819934 0.000001 0.000002 0.000000 3.958616 -6.275010 64.460614 3.958631 -6.275004 64.460627 1.067711 -3.707545 32.121782 -0.000000 0.000003 -0.000001 -26.380154 6.570186 10.426050 38.546634 7.556225 -1.930509 -17.761878 9.531778 -3.237134 -0.000039 0.000007 0.000005 0.000000 -0.000001 -0.000000 -17.571427 -9.880765 -14.467731 21.295386 -5.943294 -2.107234 -2.375782 -1.936829 19.288178 -2.684078 -0.033899 0.722705 -0.000000 -0.000002 0.000000 
